[Header]                  # Header keywords are followed by a single value
FileType htr              # single word string
DataType HTRS             # Hierarchical translations followed by rotations and Scale
FileVersion 1             # integer
NumSegments   22        # integer
NumFrames   6          # integer
DataFrameRate    60      # integer
EulerRotationOrder ZYX    # one word string
CalibrationUnits mm   # one word string
RotationUnits Degrees     # one word string
GlobalAxisofGravity Y        # character, X or Y or Z
BoneLengthAxis Y
ScaleFactor 1.0000
[SegmentNames&Hierarchy]
#CHILD         PARENT
LowerTorso	GLOBAL
MidTorso1	LowerTorso
MidTorso2	MidTorso1
UpperTorso	MidTorso2
Neck	UpperTorso
Head	Neck
LCollar	UpperTorso
LUpArm	LCollar
LLowArm	LUpArm
LHand	LLowArm
RCollar	UpperTorso
RUpArm	RCollar
RLowArm	RUpArm
RHand	RLowArm
RThigh	LowerTorso
RLowLeg	RThigh
RFoot	RLowLeg
RToe	RFoot
LThigh	LowerTorso
LLowLeg	LThigh
LFoot	LLowLeg
LToe	LFoot
[BasePosition]
#SegmentName Tx, Ty, Tz, Rx, Ry, Rz, BoneLength
LowerTorso	245.858011	950.547112	300.901792	3.160114	-0.119681	0.216534	50.177140	
MidTorso1	0.000000	50.177140	0.000000	12.744977	0.544086	-1.233692	50.243103	
MidTorso2	0.000000	50.243103	0.000000	-8.561622	-5.666755	-0.324056	70.108070	
UpperTorso	0.000000	70.108070	0.000000	-7.840640	5.423498	1.565454	211.798493	
Neck	0.000000	211.798493	0.000000	3.763396	2.354772	0.143986	247.477358	
Head	0.000000	247.477358	0.000000	87.188098	-1.617490	-0.909978	97.755902	
LCollar	5.963899	207.774288	0.020038	-0.085181	3.120430	-88.053499	154.341182	
LUpArm	0.000000	154.341182	0.000000	17.609330	2.601210	1.098979	257.694232	
LLowArm	0.000000	257.694232	0.000000	-4.295116	-4.411555	-0.381267	245.288314	
LHand	0.000000	245.288314	0.000000	-1.254656	0.451892	-3.187610	143.943585	
RCollar	-6.407295	207.548200	-0.033576	-3.957489	-2.573361	89.782717	159.716168	
RUpArm	0.000000	159.716168	0.000000	10.569861	0.025507	1.593474	259.181013	
RLowArm	0.000000	259.181013	0.000000	2.433186	-0.094719	0.439860	254.783021	
RHand	0.000000	254.783021	0.000000	-2.521327	-1.940663	10.821380	138.724995	
RThigh	-104.582724	-43.868855	71.110148	1.186921	1.056410	177.271085	484.665755	
RLowLeg	0.000000	484.665755	0.000000	-9.413113	-2.560999	2.584420	338.943480	
RFoot	0.000000	338.943480	0.000000	38.119802	-1.210697	-2.462270	108.422675	
RToe	0.000000	108.422675	0.000000	62.205972	5.729825	0.107186	135.948299	
LThigh	104.514322	-44.027056	71.110540	1.887019	-3.794944	-176.973714	484.665500	
LLowLeg	0.000000	484.665500	0.000000	-9.413064	2.561022	-2.584327	338.944952	
LFoot	0.000000	338.944952	0.000000	38.119895	1.210631	2.462181	108.422417	
LToe	0.000000	108.422417	0.000000	62.206117	-5.729564	-0.107296	135.948400	
#Beginning of Data. Separated by tabs
[LowerTorso]
#Fr     Tx      Ty      Tz      Rx      Ry      Rz      SF
1	31.051481	-0.195236	-52.682362	-0.296018	0.714182	0.311865	1.000000	
2	30.951216	-0.071797	-52.899544	-0.248121	0.695881	0.276517	1.000000	
3	30.826187	0.026278	-53.068920	-0.193814	0.696340	0.257293	1.000000	
4	30.656761	0.095920	-53.152412	-0.143569	0.726842	0.250256	1.000000	
5	30.460606	0.141348	-53.155334	-0.100464	0.775957	0.250671	1.000000	
6	30.274767	0.168088	-53.107601	-0.058684	0.818896	0.255343	1.000000	
[MidTorso1]
#Fr     Tx      Ty      Tz      Rx      Ry      Rz      SF
1	0.000000	0.000000	0.000000	-0.117293	0.479154	-0.118091	1.000000	
2	0.000000	0.000000	0.000000	-0.098596	0.496257	-0.111313	1.000000	
3	0.000000	0.000000	0.000000	-0.085275	0.497918	-0.111362	1.000000	
4	0.000000	0.000000	0.000000	-0.074367	0.481572	-0.116180	1.000000	
5	0.000000	0.000000	0.000000	-0.063748	0.457378	-0.123955	1.000000	
6	0.000000	0.000000	0.000000	-0.054644	0.439571	-0.133326	1.000000	
[MidTorso2]
#Fr     Tx      Ty      Tz      Rx      Ry      Rz      SF
1	0.000000	0.000000	0.000000	-0.130679	0.488901	-0.033358	1.000000	
2	0.000000	0.000000	0.000000	-0.111490	0.505184	-0.025942	1.000000	
3	0.000000	0.000000	0.000000	-0.098257	0.507101	-0.027032	1.000000	
4	0.000000	0.000000	0.000000	-0.087820	0.491871	-0.035272	1.000000	
5	0.000000	0.000000	0.000000	-0.077927	0.469313	-0.047567	1.000000	
6	0.000000	0.000000	0.000000	-0.069724	0.453278	-0.060334	1.000000	
[UpperTorso]
#Fr     Tx      Ty      Tz      Rx      Ry      Rz      SF
1	0.000000	0.000000	0.000000	-0.113405	0.493708	0.023358	1.000000	
2	0.000000	0.000000	0.000000	-0.094537	0.508056	0.034659	1.000000	
3	0.000000	0.000000	0.000000	-0.081200	0.509575	0.035042	1.000000	
4	0.000000	0.000000	0.000000	-0.070456	0.495201	0.025740	1.000000	
5	0.000000	0.000000	0.000000	-0.060078	0.474147	0.011373	1.000000	
6	0.000000	0.000000	0.000000	-0.051154	0.459680	-0.002703	1.000000	
[Neck]
#Fr     Tx      Ty      Tz      Rx      Ry      Rz      SF
1	0.000000	0.000000	0.000000	3.730429	-0.107805	0.194096	1.000000	
2	0.000000	0.000000	0.000000	3.679594	-0.144599	0.228057	1.000000	
3	0.000000	0.000000	0.000000	3.649801	-0.174488	0.263416	1.000000	
4	0.000000	0.000000	0.000000	3.634178	-0.182731	0.300760	1.000000	
5	0.000000	0.000000	0.000000	3.612842	-0.151621	0.337878	1.000000	
6	0.000000	0.000000	0.000000	3.572767	-0.087811	0.365391	1.000000	
[Head]
#Fr     Tx      Ty      Tz      Rx      Ry      Rz      SF
1	0.000000	0.000000	0.000000	-2.120747	-1.448152	0.277964	1.000000	
2	0.000000	0.000000	0.000000	-2.012594	-1.456609	0.253393	1.000000	
3	0.000000	0.000000	0.000000	-1.978116	-1.446153	0.247355	1.000000	
4	0.000000	0.000000	0.000000	-2.027707	-1.413724	0.250297	1.000000	
5	0.000000	0.000000	0.000000	-2.122756	-1.375520	0.258248	1.000000	
6	0.000000	0.000000	0.000000	-2.204349	-1.347388	0.265082	1.000000	
[LCollar]
#Fr     Tx      Ty      Tz      Rx      Ry      Rz      SF
1	0.000000	0.000000	0.000000	0.297690	0.001233	-0.237004	1.000000	
2	0.000000	0.000000	0.000000	0.341247	0.001468	-0.246283	1.000000	
3	0.000000	0.000000	0.000000	0.369973	0.001633	-0.252562	1.000000	
4	0.000000	0.000000	0.000000	0.378024	0.001726	-0.261283	1.000000	
5	0.000000	0.000000	0.000000	0.374643	0.001831	-0.279789	1.000000	
6	0.000000	0.000000	0.000000	0.372538	0.001990	-0.305746	1.000000	
[LUpArm]
#Fr     Tx      Ty      Tz      Rx      Ry      Rz      SF
1	0.000000	0.000000	0.000000	-2.168900	2.039969	-2.319791	1.000000	
2	0.000000	0.000000	0.000000	-2.167159	2.093999	-2.345534	1.000000	
3	0.000000	0.000000	0.000000	-2.168651	2.111032	-2.342600	1.000000	
4	0.000000	0.000000	0.000000	-2.168627	2.046651	-2.292747	1.000000	
5	0.000000	0.000000	0.000000	-2.153791	1.895578	-2.197284	1.000000	
6	0.000000	0.000000	0.000000	-2.120055	1.702289	-2.079612	1.000000	
[LLowArm]
#Fr     Tx      Ty      Tz      Rx      Ry      Rz      SF
1	0.000000	0.000000	0.000000	1.903803	-0.000416	-0.000007	1.000000	
2	0.000000	0.000000	0.000000	2.076009	-0.000454	-0.000008	1.000000	
3	0.000000	0.000000	0.000000	2.250430	-0.000492	-0.000010	1.000000	
4	0.000000	0.000000	0.000000	2.407358	-0.000526	-0.000011	1.000000	
5	0.000000	0.000000	0.000000	2.508092	-0.000548	-0.000012	1.000000	
6	0.000000	0.000000	0.000000	2.532238	-0.000553	-0.000012	1.000000	
[LHand]
#Fr     Tx      Ty      Tz      Rx      Ry      Rz      SF
1	0.000000	0.000000	0.000000	-0.800779	1.433627	-0.891883	1.000000	
2	0.000000	0.000000	0.000000	-0.768091	1.235862	-0.438361	1.000000	
3	0.000000	0.000000	0.000000	-0.738376	1.036257	0.034496	1.000000	
4	0.000000	0.000000	0.000000	-0.685145	0.845681	0.528165	1.000000	
5	0.000000	0.000000	0.000000	-0.608123	0.674233	1.055063	1.000000	
6	0.000000	0.000000	0.000000	-0.512012	0.536561	1.591447	1.000000	
[RCollar]
#Fr     Tx      Ty      Tz      Rx      Ry      Rz      SF
1	0.000000	0.000000	0.000000	-1.212946	0.002416	0.114067	1.000000	
2	0.000000	0.000000	0.000000	-1.175672	0.001981	0.096494	1.000000	
3	0.000000	0.000000	0.000000	-1.134566	0.001828	0.092258	1.000000	
4	0.000000	0.000000	0.000000	-1.105344	0.002081	0.107782	1.000000	
5	0.000000	0.000000	0.000000	-1.109199	0.002669	0.137782	1.000000	
6	0.000000	0.000000	0.000000	-1.149905	0.003371	0.167902	1.000000	
[RUpArm]
#Fr     Tx      Ty      Tz      Rx      Ry      Rz      SF
1	0.000000	0.000000	0.000000	-0.004481	-0.218586	-1.934039	1.000000	
2	0.000000	0.000000	0.000000	-0.090185	-0.079346	-1.952440	1.000000	
3	0.000000	0.000000	0.000000	-0.160382	0.021978	-1.976929	1.000000	
4	0.000000	0.000000	0.000000	-0.204434	0.062334	-2.019034	1.000000	
5	0.000000	0.000000	0.000000	-0.223603	0.040908	-2.080041	1.000000	
6	0.000000	0.000000	0.000000	-0.234353	-0.031368	-2.149997	1.000000	
[RLowArm]
#Fr     Tx      Ty      Tz      Rx      Ry      Rz      SF
1	0.000000	0.000000	0.000000	-0.944671	0.000000	0.000000	1.000000	
2	0.000000	0.000000	0.000000	-1.012714	0.000000	0.000000	1.000000	
3	0.000000	0.000000	0.000000	-1.054187	0.000000	0.000000	1.000000	
4	0.000000	0.000000	0.000000	-1.055206	0.000000	0.000000	1.000000	
5	0.000000	0.000000	0.000000	-1.016783	0.000000	0.000000	1.000000	
6	0.000000	0.000000	0.000000	-0.957314	0.000000	0.000000	1.000000	
[RHand]
#Fr     Tx      Ty      Tz      Rx      Ry      Rz      SF
1	0.000000	0.000000	0.000000	-1.414022	-4.753578	0.142570	1.000000	
2	0.000000	0.000000	0.000000	-1.495547	-4.502773	0.442132	1.000000	
3	0.000000	0.000000	0.000000	-1.533520	-4.224132	0.607893	1.000000	
4	0.000000	0.000000	0.000000	-1.539071	-3.917183	0.577716	1.000000	
5	0.000000	0.000000	0.000000	-1.541306	-3.647622	0.385430	1.000000	
6	0.000000	0.000000	0.000000	-1.573609	-3.511324	0.090174	1.000000	
[RThigh]
#Fr     Tx      Ty      Tz      Rx      Ry      Rz      SF
1	0.000000	0.000000	0.000000	1.300387	1.911116	-0.142637	1.000000	
2	0.000000	0.000000	0.000000	1.440295	1.847218	-0.072832	1.000000	
3	0.000000	0.000000	0.000000	1.559025	1.836185	-0.030561	1.000000	
4	0.000000	0.000000	0.000000	1.645003	1.886310	-0.010307	1.000000	
5	0.000000	0.000000	0.000000	1.700689	1.968337	-0.004371	1.000000	
6	0.000000	0.000000	0.000000	1.745851	2.035880	-0.006131	1.000000	
[RLowLeg]
#Fr     Tx      Ty      Tz      Rx      Ry      Rz      SF
1	0.000000	0.000000	0.000000	-2.327687	0.000000	-0.000001	1.000000	
2	0.000000	0.000000	0.000000	-2.522825	0.000000	-0.000001	1.000000	
3	0.000000	0.000000	0.000000	-2.667029	0.000000	-0.000001	1.000000	
4	0.000000	0.000000	0.000000	-2.746976	0.000000	-0.000001	1.000000	
5	0.000000	0.000000	0.000000	-2.776760	0.000000	-0.000001	1.000000	
6	0.000000	0.000000	0.000000	-2.784174	0.000000	-0.000001	1.000000	
[RFoot]
#Fr     Tx      Ty      Tz      Rx      Ry      Rz      SF
1	0.000000	0.000000	0.000000	-0.915130	-0.023057	-1.443149	1.000000	
2	0.000000	0.000000	0.000000	-0.668847	-0.020241	-1.733321	1.000000	
3	0.000000	0.000000	0.000000	-0.508575	-0.016734	-1.884481	1.000000	
4	0.000000	0.000000	0.000000	-0.456114	-0.014922	-1.873693	1.000000	
5	0.000000	0.000000	0.000000	-0.487861	-0.015033	-1.764885	1.000000	
6	0.000000	0.000000	0.000000	-0.559105	-0.015858	-1.624624	1.000000	
[RToe]
#Fr     Tx      Ty      Tz      Rx      Ry      Rz      SF
1	0.000000	0.000000	0.000000	1.114846	0.000002	0.000000	1.000000	
2	0.000000	0.000000	0.000000	0.826222	0.000002	0.000000	1.000000	
3	0.000000	0.000000	0.000000	0.633171	0.000001	0.000000	1.000000	
4	0.000000	0.000000	0.000000	0.569344	0.000001	0.000000	1.000000	
5	0.000000	0.000000	0.000000	0.614314	0.000001	0.000000	1.000000	
6	0.000000	0.000000	0.000000	0.725244	0.000001	0.000000	1.000000	
[LThigh]
#Fr     Tx      Ty      Tz      Rx      Ry      Rz      SF
1	0.000000	0.000000	0.000000	1.366512	0.031413	-0.940485	1.000000	
2	0.000000	0.000000	0.000000	1.460503	0.018778	-0.907947	1.000000	
3	0.000000	0.000000	0.000000	1.566766	0.005607	-0.891643	1.000000	
4	0.000000	0.000000	0.000000	1.676039	0.004972	-0.883134	1.000000	
5	0.000000	0.000000	0.000000	1.779620	0.025919	-0.879909	1.000000	
6	0.000000	0.000000	0.000000	1.872637	0.056881	-0.881830	1.000000	
[LLowLeg]
#Fr     Tx      Ty      Tz      Rx      Ry      Rz      SF
1	0.000000	0.000000	0.000000	-1.903564	0.000004	-0.000001	1.000000	
2	0.000000	0.000000	0.000000	-1.957365	0.000004	-0.000001	1.000000	
3	0.000000	0.000000	0.000000	-2.038030	0.000004	-0.000001	1.000000	
4	0.000000	0.000000	0.000000	-2.151747	0.000004	-0.000001	1.000000	
5	0.000000	0.000000	0.000000	-2.286003	0.000004	-0.000001	1.000000	
6	0.000000	0.000000	0.000000	-2.410841	0.000005	-0.000001	1.000000	
[LFoot]
#Fr     Tx      Ty      Tz      Rx      Ry      Rz      SF
1	0.000000	0.000000	0.000000	1.640072	-0.005153	0.179935	1.000000	
2	0.000000	0.000000	0.000000	1.572361	-0.005858	0.213359	1.000000	
3	0.000000	0.000000	0.000000	1.558668	-0.005930	0.217900	1.000000	
4	0.000000	0.000000	0.000000	1.620613	-0.005484	0.193793	1.000000	
5	0.000000	0.000000	0.000000	1.743729	-0.005073	0.166597	1.000000	
6	0.000000	0.000000	0.000000	1.879383	-0.005448	0.165978	1.000000	
[LToe]
#Fr     Tx      Ty      Tz      Rx      Ry      Rz      SF
1	0.000000	0.000000	0.000000	-2.483479	-0.000007	-0.000001	1.000000	
2	0.000000	0.000000	0.000000	-2.441334	-0.000007	-0.000001	1.000000	
3	0.000000	0.000000	0.000000	-2.433007	-0.000007	-0.000001	1.000000	
4	0.000000	0.000000	0.000000	-2.483068	-0.000007	-0.000001	1.000000	
5	0.000000	0.000000	0.000000	-2.594159	-0.000007	-0.000001	1.000000	
6	0.000000	0.000000	0.000000	-2.730219	-0.000008	-0.000001	1.000000	
[EndOfFile]
